<svg width="21" height="21" viewBox="0 0 21 21" fill="none" xmlns="http://www.w3.org/2000/svg">
<path d="M10.0743 1.81286C12.7577 1.81286 13.0788 1.81286 14.1395 1.87202C14.7776 1.87625 15.4114 1.99457 16.0073 2.21854C16.882 2.5566 17.575 3.24963 17.9131 4.12437C18.1371 4.7202 18.2554 5.35407 18.2596 5.99217C18.3103 7.05284 18.3188 7.374 18.3188 10.0574C18.3188 12.7407 18.3188 13.0619 18.2596 14.1226C18.2554 14.7607 18.1371 15.3945 17.9131 15.9904C17.575 16.8651 16.882 17.5581 16.0073 17.8962C15.4114 18.1202 14.7776 18.2385 14.1395 18.2427C13.0788 18.2934 12.7619 18.3019 10.0743 18.3019C7.38668 18.3019 7.06974 18.3019 6.00907 18.2427C5.37098 18.2385 4.73711 18.1202 4.14127 17.8962C3.26653 17.5581 2.5735 16.8651 2.23544 15.9904C2.01147 15.3945 1.89315 14.7607 1.88893 14.1226C1.83822 13.0619 1.82977 12.7407 1.82977 10.0574C1.82977 7.374 1.82977 7.05284 1.88893 5.99217C1.89315 5.35407 2.01147 4.7202 2.23544 4.12437C2.5735 3.24963 3.26653 2.5566 4.14127 2.21854C4.73711 1.99457 5.37098 1.87625 6.00907 1.87202C7.06974 1.82131 7.3909 1.81286 10.0743 1.81286ZM10.0743 0C7.34442 0 7.00213 -2.6077e-07 5.92878 0.0591608C5.09207 0.0760639 4.26804 0.236644 3.48627 0.528223C2.12557 1.048 1.048 2.12557 0.528223 3.48627C0.236644 4.26804 0.0760642 5.09207 0.059161 5.92878C0.0126774 7.00213 0 7.34442 0 10.0743C0 12.8041 0 13.1464 0.059161 14.2198C0.0760642 15.0565 0.236644 15.8805 0.528223 16.6623C1.048 18.023 2.12557 19.1006 3.48627 19.6203C4.26804 19.9119 5.09207 20.0725 5.92878 20.0894C7.00213 20.1359 7.34442 20.1486 10.0743 20.1486C12.8041 20.1486 13.1464 20.1486 14.2198 20.0894C15.0565 20.0725 15.8805 19.9119 16.6623 19.6203C18.023 19.1006 19.1006 18.023 19.6203 16.6623C19.9119 15.8805 20.0725 15.0565 20.0894 14.2198C20.1359 13.1464 20.1486 12.8041 20.1486 10.0743C20.1486 7.34442 20.1486 7.00213 20.0894 5.92878C20.0725 5.09207 19.9119 4.26804 19.6203 3.48627C19.1006 2.12557 18.023 1.048 16.6623 0.528223C15.8805 0.236644 15.0565 0.0760639 14.2198 0.0591608C13.1464 0.0126771 12.8041 0 10.0743 0Z" fill="white"/>
<path d="M10.0746 4.88922C7.22215 4.88922 4.91064 7.20073 4.91064 10.0531C4.91064 12.9055 7.22215 15.217 10.0746 15.217C12.927 15.217 15.2385 12.9055 15.2385 10.0531C15.2385 7.20073 12.927 4.88922 10.0746 4.88922ZM10.0746 13.4042C8.22366 13.4042 6.72351 11.904 6.72351 10.0531C6.72351 8.20224 8.22366 6.70208 10.0746 6.70208C11.9255 6.70208 13.4256 8.20224 13.4256 10.0531C13.4256 11.904 11.9255 13.4042 10.0746 13.4042Z" fill="white"/>
<path d="M15.441 5.895C16.1085 5.895 16.6496 5.3539 16.6496 4.68642C16.6496 4.01894 16.1085 3.47784 15.441 3.47784C14.7735 3.47784 14.2324 4.01894 14.2324 4.68642C14.2324 5.3539 14.7735 5.895 15.441 5.895Z" fill="white"/>
</svg>
